<?xml version="1.0" standalone="no"?>
<!DOCTYPE svg PUBLIC "-//W3C//DTD SVG 20010904//EN"
 "http://www.w3.org/TR/2001/REC-SVG-20010904/DTD/svg10.dtd">
<svg version="1.0" xmlns="http://www.w3.org/2000/svg"
 width="512.000000pt" height="512.000000pt" viewBox="0 0 512.000000 512.000000"
 preserveAspectRatio="xMidYMid meet">

<g transform="translate(0.000000,512.000000) scale(0.100000,-0.100000)"
fill="#000000" stroke="none">
<path d="M190 5111 c-69 -21 -130 -73 -166 -141 -18 -34 -19 -113 -19 -2410
l0 -2375 22 -40 c25 -47 74 -95 123 -121 34 -18 113 -19 2410 -19 l2375 0 40
22 c47 25 95 74 121 123 18 34 19 113 19 2410 0 2297 -1 2376 -19 2410 -26 49
-74 98 -121 123 l-40 22 -2360 2 c-1298 1 -2371 -2 -2385 -6z m4731 -190 l29
-29 0 -2332 0 -2332 -29 -29 -29 -29 -2332 0 -2332 0 -29 29 -29 29 0 2332 0
2332 29 29 29 29 2332 0 2332 0 29 -29z"/>
<path d="M390 4597 c-48 -24 -50 -38 -50 -415 0 -401 0 -403 70 -422 26 -7
236 -10 637 -8 654 3 632 1 653 62 14 41 13 693 -1 735 -22 62 -6 61 -676 61
-468 0 -614 -3 -633 -13z m1148 -414 l2 -253 -515 0 -515 0 0 255 0 255 513
-2 512 -3 3 -252z"/>
<path d="M1940 4603 c-8 -3 -25 -15 -37 -26 l-23 -20 0 -373 0 -373 24 -28 24
-28 632 0 632 0 24 28 24 28 0 373 0 373 -26 24 -26 24 -616 2 c-339 1 -624
-1 -632 -4z m1130 -418 l0 -255 -510 0 -510 0 0 255 0 255 510 0 510 0 0 -255z"/>
<path d="M3459 4595 c-15 -8 -32 -29 -38 -46 -14 -42 -15 -694 -1 -735 21 -61
-1 -59 653 -62 401 -2 611 1 637 8 71 19 71 20 68 435 -3 364 -3 364 -26 387
l-23 23 -622 2 c-527 2 -626 0 -648 -12z m1151 -410 l0 -255 -515 0 -515 0 0
248 c0 137 3 252 7 255 3 4 235 7 515 7 l508 0 0 -255z"/>
<path d="M945 3494 c-11 -2 -45 -9 -75 -15 -30 -6 -97 -31 -149 -56 -79 -38
-109 -59 -177 -127 -68 -69 -89 -98 -127 -177 -57 -120 -72 -180 -72 -304 0
-125 15 -185 73 -305 37 -77 61 -109 122 -170 120 -120 242 -179 410 -201 423
-53 804 328 751 751 -22 168 -82 290 -201 410 -81 81 -193 147 -300 175 -56
16 -219 28 -255 19z m-5 -254 l0 -80 85 0 85 0 0 80 c0 44 1 80 3 80 19 0 122
-38 159 -58 l48 -27 -57 -57 -57 -58 59 -60 59 -60 58 57 c32 31 59 55 61 52
26 -30 87 -174 87 -206 0 -2 -36 -3 -80 -3 l-80 0 0 -85 0 -85 79 0 79 0 -12
-47 c-44 -165 -187 -309 -357 -359 -28 -8 -88 -15 -133 -15 -241 -1 -444 159
-500 394 l-6 27 80 0 80 0 0 85 0 85 -80 0 c-44 0 -80 1 -80 3 0 19 38 122 58
160 l26 48 58 -58 58 -58 62 63 63 62 -58 58 -57 58 42 24 c36 20 138 58 161
59 4 1 7 -35 7 -79z"/>
<path d="M940 2685 l0 -216 83 3 82 3 3 213 2 212 -85 0 -85 0 0 -215z"/>
<path d="M2448 3490 c-218 -40 -400 -176 -499 -375 -54 -109 -72 -203 -66
-335 9 -182 68 -312 201 -446 67 -68 97 -89 176 -127 111 -53 183 -70 300 -70
117 0 189 17 300 70 162 78 291 227 350 403 30 90 37 250 16 349 -39 182 -166
355 -331 451 -120 69 -317 104 -447 80z m22 -250 l0 -80 90 0 90 0 0 80 0 80
28 -6 c38 -8 172 -71 172 -81 0 -4 -25 -32 -55 -63 l-55 -56 60 -59 60 -59 59
58 59 58 25 -43 c26 -46 57 -129 57 -154 0 -12 -16 -15 -80 -15 l-80 0 0 -85
0 -85 81 0 81 0 -7 -32 c-48 -225 -257 -389 -495 -389 -238 0 -447 164 -495
389 l-7 32 81 0 81 0 0 85 0 85 -80 0 c-64 0 -80 3 -80 15 0 25 31 108 57 154
l25 43 59 -58 59 -58 60 59 60 59 -55 56 c-30 31 -55 59 -55 63 0 14 154 83
193 86 4 1 7 -35 7 -79z"/>
<path d="M2472 2688 l3 -213 85 0 85 0 3 213 2 212 -90 0 -90 0 2 -212z"/>
<path d="M3982 3490 c-244 -44 -462 -232 -533 -460 -78 -252 -16 -513 166
-695 182 -182 443 -244 695 -166 96 30 185 87 270 171 61 61 85 93 122 170 58
120 73 180 73 305 0 124 -15 184 -72 304 -81 170 -247 306 -433 356 -70 19
-220 27 -288 15z m28 -250 l0 -80 85 0 85 0 0 80 c0 44 1 80 3 80 19 0 122
-38 160 -58 l48 -26 -58 -58 -58 -58 63 -62 62 -63 58 58 58 58 26 -48 c20
-38 58 -141 58 -160 0 -2 -36 -3 -80 -3 l-80 0 0 -85 0 -85 80 0 80 0 -6 -27
c-55 -231 -260 -395 -493 -395 -42 0 -98 6 -126 13 -171 42 -326 193 -370 360
l-13 49 79 0 79 0 0 85 0 85 -80 0 c-44 0 -80 1 -80 3 0 32 61 176 87 206 2 3
29 -21 61 -52 l58 -57 59 60 59 60 -56 58 -57 57 42 24 c36 21 136 59 160 60
4 1 7 -35 7 -79z"/>
<path d="M4012 2688 l3 -213 83 -3 82 -3 0 216 0 215 -85 0 -85 0 2 -212z"/>
<path d="M1728 2040 c-103 -18 -198 -94 -246 -199 -22 -46 -26 -71 -27 -139
l0 -83 -40 -25 -40 -24 -5 171 -5 171 -28 24 -28 24 -288 0 -288 0 -24 -26
-24 -26 -3 -646 c-2 -446 0 -659 8 -684 19 -65 33 -68 335 -68 302 0 317 3
334 68 7 22 11 185 11 417 l0 380 86 47 85 47 47 -34 c70 -50 138 -68 230 -63
61 3 89 11 131 33 184 101 237 331 115 506 -36 52 -117 105 -189 124 -64 16
-76 17 -147 5z m162 -199 c52 -40 72 -85 67 -149 -6 -87 -61 -142 -150 -150
-127 -10 -218 105 -173 222 41 108 168 146 256 77z m-702 -212 l-3 -162 -95
-53 c-52 -29 -96 -57 -98 -62 -3 -11 67 -142 76 -142 3 0 29 14 59 30 29 17
55 30 58 30 3 0 5 -133 5 -295 l0 -295 -167 2 -168 3 -3 553 -2 552 170 0 170
0 -2 -161z"/>
<path d="M2353 1695 c-48 -20 -55 -60 -51 -267 l3 -178 28 -27 27 -28 200 0
200 0 27 28 28 27 3 178 c4 210 -3 247 -53 268 -48 20 -366 19 -412 -1z m295
-242 l3 -83 -91 0 -90 0 0 78 c0 43 3 82 7 86 4 4 43 5 88 4 l80 -3 3 -82z"/>
<path d="M3903 1703 c-13 -2 -32 -16 -43 -30 -19 -24 -20 -40 -20 -225 0 -196
0 -199 24 -223 33 -33 68 -37 266 -33 l172 3 24 28 c24 28 24 31 24 227 0 196
0 199 -24 227 l-24 28 -189 2 c-103 0 -198 -1 -210 -4z m277 -248 l0 -85 -85
0 -85 0 0 85 0 85 85 0 85 0 0 -85z"/>
<path d="M2329 994 c-23 -25 -24 -31 -27 -202 -4 -202 3 -244 48 -267 42 -22
378 -22 420 0 45 23 52 65 48 267 -3 171 -4 177 -27 202 l-24 26 -207 0 -207
0 -24 -26z m319 -226 l-3 -83 -85 0 -85 0 -3 83 -3 82 91 0 91 0 -3 -82z"/>
<path d="M3882 1013 c-34 -14 -42 -59 -42 -252 0 -186 0 -190 24 -218 l24 -28
205 0 c204 0 206 0 231 24 l26 24 0 204 c0 273 20 253 -252 252 -112 0 -209
-3 -216 -6z m298 -248 l0 -85 -85 0 -85 0 0 85 0 85 85 0 85 0 0 -85z"/>
</g>
</svg>
